<mxfile host="Electron" agent="Mozilla/5.0 (Windows NT 10.0; Win64; x64) AppleWebKit/537.36 (KHTML, like Gecko) draw.io/28.1.2 Chrome/138.0.7204.243 Electron/37.4.0 Safari/537.36" version="28.1.2" pages="8">
  <diagram name="1 create communication event" id="m7Yng0EXJA9HZXMEzpOx">
    <mxGraphModel dx="1042" dy="626" grid="1" gridSize="10" guides="1" tooltips="1" connect="1" arrows="1" fold="1" page="1" pageScale="1" pageWidth="827" pageHeight="1169" math="0" shadow="0">
      <root>
        <mxCell id="fyy8SqprNCmXYm2Urojl-0" />
        <mxCell id="fyy8SqprNCmXYm2Urojl-1" parent="fyy8SqprNCmXYm2Urojl-0" />
        <mxCell id="fyy8SqprNCmXYm2Urojl-2" value="" style="edgeStyle=orthogonalEdgeStyle;rounded=0;orthogonalLoop=1;jettySize=auto;html=1;" parent="fyy8SqprNCmXYm2Urojl-1" source="fyy8SqprNCmXYm2Urojl-3" target="fyy8SqprNCmXYm2Urojl-6" edge="1">
          <mxGeometry relative="1" as="geometry" />
        </mxCell>
        <mxCell id="fyy8SqprNCmXYm2Urojl-3" value="start" style="rounded=1;whiteSpace=wrap;html=1;arcSize=50;" parent="fyy8SqprNCmXYm2Urojl-1" vertex="1">
          <mxGeometry x="20" y="30" width="120" height="60" as="geometry" />
        </mxCell>
        <mxCell id="fyy8SqprNCmXYm2Urojl-4" value="end" style="rounded=1;whiteSpace=wrap;html=1;arcSize=50;" parent="fyy8SqprNCmXYm2Urojl-1" vertex="1">
          <mxGeometry x="20" y="170" width="120" height="60" as="geometry" />
        </mxCell>
        <mxCell id="fyy8SqprNCmXYm2Urojl-5" value="" style="edgeStyle=orthogonalEdgeStyle;rounded=0;orthogonalLoop=1;jettySize=auto;html=1;" parent="fyy8SqprNCmXYm2Urojl-1" source="fyy8SqprNCmXYm2Urojl-6" target="fyy8SqprNCmXYm2Urojl-8" edge="1">
          <mxGeometry relative="1" as="geometry" />
        </mxCell>
        <mxCell id="fyy8SqprNCmXYm2Urojl-6" value="press create communication event button" style="whiteSpace=wrap;html=1;rounded=0;arcSize=50;" parent="fyy8SqprNCmXYm2Urojl-1" vertex="1">
          <mxGeometry x="220" y="30" width="120" height="60" as="geometry" />
        </mxCell>
        <mxCell id="fyy8SqprNCmXYm2Urojl-7" value="" style="edgeStyle=orthogonalEdgeStyle;rounded=0;orthogonalLoop=1;jettySize=auto;html=1;" parent="fyy8SqprNCmXYm2Urojl-1" source="fyy8SqprNCmXYm2Urojl-8" target="fyy8SqprNCmXYm2Urojl-10" edge="1">
          <mxGeometry relative="1" as="geometry" />
        </mxCell>
        <mxCell id="fyy8SqprNCmXYm2Urojl-8" value="input communication event detail" style="whiteSpace=wrap;html=1;rounded=0;arcSize=50;" parent="fyy8SqprNCmXYm2Urojl-1" vertex="1">
          <mxGeometry x="420" y="30" width="120" height="60" as="geometry" />
        </mxCell>
        <mxCell id="fyy8SqprNCmXYm2Urojl-9" value="" style="edgeStyle=orthogonalEdgeStyle;rounded=0;orthogonalLoop=1;jettySize=auto;html=1;" parent="fyy8SqprNCmXYm2Urojl-1" source="fyy8SqprNCmXYm2Urojl-10" target="fyy8SqprNCmXYm2Urojl-12" edge="1">
          <mxGeometry relative="1" as="geometry" />
        </mxCell>
        <mxCell id="fyy8SqprNCmXYm2Urojl-10" value="check auth" style="shape=process;whiteSpace=wrap;html=1;backgroundOutline=1;" parent="fyy8SqprNCmXYm2Urojl-1" vertex="1">
          <mxGeometry x="620" y="30" width="120" height="60" as="geometry" />
        </mxCell>
        <mxCell id="fyy8SqprNCmXYm2Urojl-11" value="" style="edgeStyle=orthogonalEdgeStyle;rounded=0;orthogonalLoop=1;jettySize=auto;html=1;" parent="fyy8SqprNCmXYm2Urojl-1" source="fyy8SqprNCmXYm2Urojl-12" target="fyy8SqprNCmXYm2Urojl-15" edge="1">
          <mxGeometry relative="1" as="geometry" />
        </mxCell>
        <mxCell id="fyy8SqprNCmXYm2Urojl-12" value="use access token to create communication event" style="whiteSpace=wrap;html=1;" parent="fyy8SqprNCmXYm2Urojl-1" vertex="1">
          <mxGeometry x="620" y="170" width="120" height="60" as="geometry" />
        </mxCell>
        <mxCell id="fyy8SqprNCmXYm2Urojl-13" value="yes" style="edgeStyle=orthogonalEdgeStyle;rounded=0;orthogonalLoop=1;jettySize=auto;html=1;" parent="fyy8SqprNCmXYm2Urojl-1" source="fyy8SqprNCmXYm2Urojl-15" target="fyy8SqprNCmXYm2Urojl-17" edge="1">
          <mxGeometry relative="1" as="geometry" />
        </mxCell>
        <mxCell id="fyy8SqprNCmXYm2Urojl-14" value="no" style="edgeStyle=orthogonalEdgeStyle;rounded=0;orthogonalLoop=1;jettySize=auto;html=1;" parent="fyy8SqprNCmXYm2Urojl-1" source="fyy8SqprNCmXYm2Urojl-15" target="fyy8SqprNCmXYm2Urojl-20" edge="1">
          <mxGeometry relative="1" as="geometry">
            <mxPoint x="480" y="310" as="targetPoint" />
          </mxGeometry>
        </mxCell>
        <mxCell id="fyy8SqprNCmXYm2Urojl-15" value="success" style="rhombus;whiteSpace=wrap;html=1;" parent="fyy8SqprNCmXYm2Urojl-1" vertex="1">
          <mxGeometry x="440" y="160" width="80" height="80" as="geometry" />
        </mxCell>
        <mxCell id="fyy8SqprNCmXYm2Urojl-16" style="edgeStyle=orthogonalEdgeStyle;rounded=0;orthogonalLoop=1;jettySize=auto;html=1;" parent="fyy8SqprNCmXYm2Urojl-1" source="fyy8SqprNCmXYm2Urojl-17" target="fyy8SqprNCmXYm2Urojl-4" edge="1">
          <mxGeometry relative="1" as="geometry" />
        </mxCell>
        <mxCell id="fyy8SqprNCmXYm2Urojl-17" value="show communication events" style="rounded=0;whiteSpace=wrap;html=1;" parent="fyy8SqprNCmXYm2Urojl-1" vertex="1">
          <mxGeometry x="220" y="170" width="120" height="60" as="geometry" />
        </mxCell>
        <mxCell id="fyy8SqprNCmXYm2Urojl-18" value="no" style="edgeStyle=orthogonalEdgeStyle;rounded=0;orthogonalLoop=1;jettySize=auto;html=1;" parent="fyy8SqprNCmXYm2Urojl-1" source="fyy8SqprNCmXYm2Urojl-20" target="fyy8SqprNCmXYm2Urojl-24" edge="1">
          <mxGeometry relative="1" as="geometry">
            <mxPoint x="320" y="350" as="targetPoint" />
          </mxGeometry>
        </mxCell>
        <mxCell id="fyy8SqprNCmXYm2Urojl-19" value="yes" style="edgeStyle=orthogonalEdgeStyle;rounded=0;orthogonalLoop=1;jettySize=auto;html=1;" parent="fyy8SqprNCmXYm2Urojl-1" source="fyy8SqprNCmXYm2Urojl-20" target="fyy8SqprNCmXYm2Urojl-22" edge="1">
          <mxGeometry relative="1" as="geometry">
            <mxPoint x="480" y="460" as="targetPoint" />
          </mxGeometry>
        </mxCell>
        <mxCell id="fyy8SqprNCmXYm2Urojl-20" value="&lt;font style=&quot;font-size: 10px;&quot;&gt;is unauthorize&lt;/font&gt;" style="rhombus;whiteSpace=wrap;html=1;" parent="fyy8SqprNCmXYm2Urojl-1" vertex="1">
          <mxGeometry x="440" y="310" width="80" height="80" as="geometry" />
        </mxCell>
        <mxCell id="fyy8SqprNCmXYm2Urojl-21" style="edgeStyle=orthogonalEdgeStyle;rounded=0;orthogonalLoop=1;jettySize=auto;html=1;" parent="fyy8SqprNCmXYm2Urojl-1" source="fyy8SqprNCmXYm2Urojl-22" target="fyy8SqprNCmXYm2Urojl-4" edge="1">
          <mxGeometry relative="1" as="geometry">
            <Array as="points">
              <mxPoint x="680" y="420" />
              <mxPoint x="80" y="420" />
            </Array>
          </mxGeometry>
        </mxCell>
        <mxCell id="fyy8SqprNCmXYm2Urojl-22" value="logout" style="shape=process;whiteSpace=wrap;html=1;backgroundOutline=1;" parent="fyy8SqprNCmXYm2Urojl-1" vertex="1">
          <mxGeometry x="620" y="320" width="120" height="60" as="geometry" />
        </mxCell>
        <mxCell id="fyy8SqprNCmXYm2Urojl-23" style="edgeStyle=orthogonalEdgeStyle;rounded=0;orthogonalLoop=1;jettySize=auto;html=1;" parent="fyy8SqprNCmXYm2Urojl-1" source="fyy8SqprNCmXYm2Urojl-24" target="fyy8SqprNCmXYm2Urojl-4" edge="1">
          <mxGeometry relative="1" as="geometry" />
        </mxCell>
        <mxCell id="fyy8SqprNCmXYm2Urojl-24" value="show error" style="rounded=0;whiteSpace=wrap;html=1;" parent="fyy8SqprNCmXYm2Urojl-1" vertex="1">
          <mxGeometry x="220" y="320" width="120" height="60" as="geometry" />
        </mxCell>
      </root>
    </mxGraphModel>
  </diagram>
  <diagram name="2 read communication events" id="e4UpjBRP90ihVO5HE0Sp">
    <mxGraphModel dx="1042" dy="626" grid="1" gridSize="10" guides="1" tooltips="1" connect="1" arrows="1" fold="1" page="1" pageScale="1" pageWidth="827" pageHeight="1169" math="0" shadow="0">
      <root>
        <mxCell id="pFDuo_NF6HeRQPMXjHqP-0" />
        <mxCell id="pFDuo_NF6HeRQPMXjHqP-1" parent="pFDuo_NF6HeRQPMXjHqP-0" />
        <mxCell id="pFDuo_NF6HeRQPMXjHqP-2" value="" style="edgeStyle=orthogonalEdgeStyle;rounded=0;orthogonalLoop=1;jettySize=auto;html=1;" parent="pFDuo_NF6HeRQPMXjHqP-1" source="pFDuo_NF6HeRQPMXjHqP-3" target="pFDuo_NF6HeRQPMXjHqP-6" edge="1">
          <mxGeometry relative="1" as="geometry" />
        </mxCell>
        <mxCell id="pFDuo_NF6HeRQPMXjHqP-3" value="start" style="rounded=1;whiteSpace=wrap;html=1;arcSize=50;" parent="pFDuo_NF6HeRQPMXjHqP-1" vertex="1">
          <mxGeometry x="20" y="20" width="120" height="60" as="geometry" />
        </mxCell>
        <mxCell id="pFDuo_NF6HeRQPMXjHqP-4" value="end" style="rounded=1;whiteSpace=wrap;html=1;arcSize=50;" parent="pFDuo_NF6HeRQPMXjHqP-1" vertex="1">
          <mxGeometry x="20" y="160" width="120" height="60" as="geometry" />
        </mxCell>
        <mxCell id="pFDuo_NF6HeRQPMXjHqP-5" value="" style="edgeStyle=orthogonalEdgeStyle;rounded=0;orthogonalLoop=1;jettySize=auto;html=1;" parent="pFDuo_NF6HeRQPMXjHqP-1" source="pFDuo_NF6HeRQPMXjHqP-6" target="pFDuo_NF6HeRQPMXjHqP-8" edge="1">
          <mxGeometry relative="1" as="geometry" />
        </mxCell>
        <mxCell id="pFDuo_NF6HeRQPMXjHqP-6" value="check auth" style="shape=process;whiteSpace=wrap;html=1;backgroundOutline=1;" parent="pFDuo_NF6HeRQPMXjHqP-1" vertex="1">
          <mxGeometry x="200" y="20" width="120" height="60" as="geometry" />
        </mxCell>
        <mxCell id="pFDuo_NF6HeRQPMXjHqP-7" value="" style="edgeStyle=orthogonalEdgeStyle;rounded=0;orthogonalLoop=1;jettySize=auto;html=1;" parent="pFDuo_NF6HeRQPMXjHqP-1" source="pFDuo_NF6HeRQPMXjHqP-8" target="pFDuo_NF6HeRQPMXjHqP-11" edge="1">
          <mxGeometry relative="1" as="geometry" />
        </mxCell>
        <mxCell id="pFDuo_NF6HeRQPMXjHqP-8" value="use access token to get communication events" style="whiteSpace=wrap;html=1;" parent="pFDuo_NF6HeRQPMXjHqP-1" vertex="1">
          <mxGeometry x="400" y="20" width="120" height="60" as="geometry" />
        </mxCell>
        <mxCell id="pFDuo_NF6HeRQPMXjHqP-9" value="no" style="edgeStyle=orthogonalEdgeStyle;rounded=0;orthogonalLoop=1;jettySize=auto;html=1;" parent="pFDuo_NF6HeRQPMXjHqP-1" source="pFDuo_NF6HeRQPMXjHqP-11" target="pFDuo_NF6HeRQPMXjHqP-13" edge="1">
          <mxGeometry relative="1" as="geometry" />
        </mxCell>
        <mxCell id="pFDuo_NF6HeRQPMXjHqP-10" value="yes" style="edgeStyle=orthogonalEdgeStyle;rounded=0;orthogonalLoop=1;jettySize=auto;html=1;" parent="pFDuo_NF6HeRQPMXjHqP-1" source="pFDuo_NF6HeRQPMXjHqP-11" target="pFDuo_NF6HeRQPMXjHqP-15" edge="1">
          <mxGeometry relative="1" as="geometry" />
        </mxCell>
        <mxCell id="pFDuo_NF6HeRQPMXjHqP-11" value="is success" style="rhombus;whiteSpace=wrap;html=1;" parent="pFDuo_NF6HeRQPMXjHqP-1" vertex="1">
          <mxGeometry x="420" y="150" width="80" height="80" as="geometry" />
        </mxCell>
        <mxCell id="pFDuo_NF6HeRQPMXjHqP-12" style="edgeStyle=orthogonalEdgeStyle;rounded=0;orthogonalLoop=1;jettySize=auto;html=1;" parent="pFDuo_NF6HeRQPMXjHqP-1" source="pFDuo_NF6HeRQPMXjHqP-13" target="pFDuo_NF6HeRQPMXjHqP-4" edge="1">
          <mxGeometry relative="1" as="geometry">
            <Array as="points">
              <mxPoint x="620" y="260" />
              <mxPoint x="80" y="260" />
            </Array>
          </mxGeometry>
        </mxCell>
        <mxCell id="pFDuo_NF6HeRQPMXjHqP-13" value="show error" style="whiteSpace=wrap;html=1;" parent="pFDuo_NF6HeRQPMXjHqP-1" vertex="1">
          <mxGeometry x="560" y="160" width="120" height="60" as="geometry" />
        </mxCell>
        <mxCell id="pFDuo_NF6HeRQPMXjHqP-14" style="edgeStyle=orthogonalEdgeStyle;rounded=0;orthogonalLoop=1;jettySize=auto;html=1;" parent="pFDuo_NF6HeRQPMXjHqP-1" source="pFDuo_NF6HeRQPMXjHqP-15" target="pFDuo_NF6HeRQPMXjHqP-4" edge="1">
          <mxGeometry relative="1" as="geometry" />
        </mxCell>
        <mxCell id="pFDuo_NF6HeRQPMXjHqP-15" value="show communication events" style="whiteSpace=wrap;html=1;" parent="pFDuo_NF6HeRQPMXjHqP-1" vertex="1">
          <mxGeometry x="200" y="160" width="120" height="60" as="geometry" />
        </mxCell>
      </root>
    </mxGraphModel>
  </diagram>
  <diagram name="3 update communication event" id="EqpJ2SRbPs0ACMfEXuLG">
    <mxGraphModel dx="1042" dy="626" grid="1" gridSize="10" guides="1" tooltips="1" connect="1" arrows="1" fold="1" page="1" pageScale="1" pageWidth="827" pageHeight="1169" math="0" shadow="0">
      <root>
        <mxCell id="pIjhXhE3gDOz_BYHJKuz-0" />
        <mxCell id="pIjhXhE3gDOz_BYHJKuz-1" parent="pIjhXhE3gDOz_BYHJKuz-0" />
        <mxCell id="pIjhXhE3gDOz_BYHJKuz-2" value="" style="edgeStyle=orthogonalEdgeStyle;rounded=0;orthogonalLoop=1;jettySize=auto;html=1;" parent="pIjhXhE3gDOz_BYHJKuz-1" source="pIjhXhE3gDOz_BYHJKuz-3" target="pIjhXhE3gDOz_BYHJKuz-6" edge="1">
          <mxGeometry relative="1" as="geometry" />
        </mxCell>
        <mxCell id="pIjhXhE3gDOz_BYHJKuz-3" value="start" style="rounded=1;whiteSpace=wrap;html=1;arcSize=50;" parent="pIjhXhE3gDOz_BYHJKuz-1" vertex="1">
          <mxGeometry x="20" y="30" width="120" height="60" as="geometry" />
        </mxCell>
        <mxCell id="pIjhXhE3gDOz_BYHJKuz-4" value="end" style="rounded=1;whiteSpace=wrap;html=1;arcSize=50;" parent="pIjhXhE3gDOz_BYHJKuz-1" vertex="1">
          <mxGeometry x="20" y="170" width="120" height="60" as="geometry" />
        </mxCell>
        <mxCell id="pIjhXhE3gDOz_BYHJKuz-5" value="" style="edgeStyle=orthogonalEdgeStyle;rounded=0;orthogonalLoop=1;jettySize=auto;html=1;" parent="pIjhXhE3gDOz_BYHJKuz-1" source="pIjhXhE3gDOz_BYHJKuz-6" target="pIjhXhE3gDOz_BYHJKuz-8" edge="1">
          <mxGeometry relative="1" as="geometry" />
        </mxCell>
        <mxCell id="pIjhXhE3gDOz_BYHJKuz-6" value="press update communication event button" style="whiteSpace=wrap;html=1;rounded=0;arcSize=50;" parent="pIjhXhE3gDOz_BYHJKuz-1" vertex="1">
          <mxGeometry x="220" y="30" width="120" height="60" as="geometry" />
        </mxCell>
        <mxCell id="pIjhXhE3gDOz_BYHJKuz-7" value="" style="edgeStyle=orthogonalEdgeStyle;rounded=0;orthogonalLoop=1;jettySize=auto;html=1;" parent="pIjhXhE3gDOz_BYHJKuz-1" source="pIjhXhE3gDOz_BYHJKuz-8" target="pIjhXhE3gDOz_BYHJKuz-10" edge="1">
          <mxGeometry relative="1" as="geometry" />
        </mxCell>
        <mxCell id="pIjhXhE3gDOz_BYHJKuz-8" value="update communication event detail" style="whiteSpace=wrap;html=1;rounded=0;arcSize=50;" parent="pIjhXhE3gDOz_BYHJKuz-1" vertex="1">
          <mxGeometry x="420" y="30" width="120" height="60" as="geometry" />
        </mxCell>
        <mxCell id="pIjhXhE3gDOz_BYHJKuz-9" value="" style="edgeStyle=orthogonalEdgeStyle;rounded=0;orthogonalLoop=1;jettySize=auto;html=1;" parent="pIjhXhE3gDOz_BYHJKuz-1" source="pIjhXhE3gDOz_BYHJKuz-10" target="pIjhXhE3gDOz_BYHJKuz-12" edge="1">
          <mxGeometry relative="1" as="geometry" />
        </mxCell>
        <mxCell id="pIjhXhE3gDOz_BYHJKuz-10" value="check auth" style="shape=process;whiteSpace=wrap;html=1;backgroundOutline=1;" parent="pIjhXhE3gDOz_BYHJKuz-1" vertex="1">
          <mxGeometry x="620" y="30" width="120" height="60" as="geometry" />
        </mxCell>
        <mxCell id="pIjhXhE3gDOz_BYHJKuz-11" value="" style="edgeStyle=orthogonalEdgeStyle;rounded=0;orthogonalLoop=1;jettySize=auto;html=1;" parent="pIjhXhE3gDOz_BYHJKuz-1" source="pIjhXhE3gDOz_BYHJKuz-12" target="pIjhXhE3gDOz_BYHJKuz-15" edge="1">
          <mxGeometry relative="1" as="geometry" />
        </mxCell>
        <mxCell id="pIjhXhE3gDOz_BYHJKuz-12" value="use access token to update communication event" style="whiteSpace=wrap;html=1;" parent="pIjhXhE3gDOz_BYHJKuz-1" vertex="1">
          <mxGeometry x="620" y="170" width="120" height="60" as="geometry" />
        </mxCell>
        <mxCell id="pIjhXhE3gDOz_BYHJKuz-13" value="yes" style="edgeStyle=orthogonalEdgeStyle;rounded=0;orthogonalLoop=1;jettySize=auto;html=1;" parent="pIjhXhE3gDOz_BYHJKuz-1" source="pIjhXhE3gDOz_BYHJKuz-15" target="pIjhXhE3gDOz_BYHJKuz-17" edge="1">
          <mxGeometry relative="1" as="geometry" />
        </mxCell>
        <mxCell id="pIjhXhE3gDOz_BYHJKuz-14" value="no" style="edgeStyle=orthogonalEdgeStyle;rounded=0;orthogonalLoop=1;jettySize=auto;html=1;" parent="pIjhXhE3gDOz_BYHJKuz-1" source="pIjhXhE3gDOz_BYHJKuz-15" target="pIjhXhE3gDOz_BYHJKuz-20" edge="1">
          <mxGeometry relative="1" as="geometry">
            <mxPoint x="480" y="310" as="targetPoint" />
          </mxGeometry>
        </mxCell>
        <mxCell id="pIjhXhE3gDOz_BYHJKuz-15" value="success" style="rhombus;whiteSpace=wrap;html=1;" parent="pIjhXhE3gDOz_BYHJKuz-1" vertex="1">
          <mxGeometry x="440" y="160" width="80" height="80" as="geometry" />
        </mxCell>
        <mxCell id="pIjhXhE3gDOz_BYHJKuz-16" style="edgeStyle=orthogonalEdgeStyle;rounded=0;orthogonalLoop=1;jettySize=auto;html=1;" parent="pIjhXhE3gDOz_BYHJKuz-1" source="pIjhXhE3gDOz_BYHJKuz-17" target="pIjhXhE3gDOz_BYHJKuz-4" edge="1">
          <mxGeometry relative="1" as="geometry" />
        </mxCell>
        <mxCell id="pIjhXhE3gDOz_BYHJKuz-17" value="show communication events" style="rounded=0;whiteSpace=wrap;html=1;" parent="pIjhXhE3gDOz_BYHJKuz-1" vertex="1">
          <mxGeometry x="220" y="170" width="120" height="60" as="geometry" />
        </mxCell>
        <mxCell id="pIjhXhE3gDOz_BYHJKuz-18" value="no" style="edgeStyle=orthogonalEdgeStyle;rounded=0;orthogonalLoop=1;jettySize=auto;html=1;" parent="pIjhXhE3gDOz_BYHJKuz-1" source="pIjhXhE3gDOz_BYHJKuz-20" target="pIjhXhE3gDOz_BYHJKuz-24" edge="1">
          <mxGeometry relative="1" as="geometry">
            <mxPoint x="320" y="350" as="targetPoint" />
          </mxGeometry>
        </mxCell>
        <mxCell id="pIjhXhE3gDOz_BYHJKuz-19" value="yes" style="edgeStyle=orthogonalEdgeStyle;rounded=0;orthogonalLoop=1;jettySize=auto;html=1;" parent="pIjhXhE3gDOz_BYHJKuz-1" source="pIjhXhE3gDOz_BYHJKuz-20" target="pIjhXhE3gDOz_BYHJKuz-22" edge="1">
          <mxGeometry relative="1" as="geometry">
            <mxPoint x="480" y="460" as="targetPoint" />
          </mxGeometry>
        </mxCell>
        <mxCell id="pIjhXhE3gDOz_BYHJKuz-20" value="&lt;font style=&quot;font-size: 10px;&quot;&gt;is unauthorize&lt;/font&gt;" style="rhombus;whiteSpace=wrap;html=1;" parent="pIjhXhE3gDOz_BYHJKuz-1" vertex="1">
          <mxGeometry x="440" y="310" width="80" height="80" as="geometry" />
        </mxCell>
        <mxCell id="pIjhXhE3gDOz_BYHJKuz-21" style="edgeStyle=orthogonalEdgeStyle;rounded=0;orthogonalLoop=1;jettySize=auto;html=1;" parent="pIjhXhE3gDOz_BYHJKuz-1" source="pIjhXhE3gDOz_BYHJKuz-22" target="pIjhXhE3gDOz_BYHJKuz-4" edge="1">
          <mxGeometry relative="1" as="geometry">
            <Array as="points">
              <mxPoint x="680" y="420" />
              <mxPoint x="80" y="420" />
            </Array>
          </mxGeometry>
        </mxCell>
        <mxCell id="pIjhXhE3gDOz_BYHJKuz-22" value="logout" style="shape=process;whiteSpace=wrap;html=1;backgroundOutline=1;" parent="pIjhXhE3gDOz_BYHJKuz-1" vertex="1">
          <mxGeometry x="620" y="320" width="120" height="60" as="geometry" />
        </mxCell>
        <mxCell id="pIjhXhE3gDOz_BYHJKuz-23" style="edgeStyle=orthogonalEdgeStyle;rounded=0;orthogonalLoop=1;jettySize=auto;html=1;" parent="pIjhXhE3gDOz_BYHJKuz-1" source="pIjhXhE3gDOz_BYHJKuz-24" target="pIjhXhE3gDOz_BYHJKuz-4" edge="1">
          <mxGeometry relative="1" as="geometry" />
        </mxCell>
        <mxCell id="pIjhXhE3gDOz_BYHJKuz-24" value="show error" style="rounded=0;whiteSpace=wrap;html=1;" parent="pIjhXhE3gDOz_BYHJKuz-1" vertex="1">
          <mxGeometry x="220" y="320" width="120" height="60" as="geometry" />
        </mxCell>
      </root>
    </mxGraphModel>
  </diagram>
  <diagram name="4 delete communication event" id="Be6cJoP0_4KwJ_Kv81P4">
    <mxGraphModel dx="1042" dy="626" grid="1" gridSize="10" guides="1" tooltips="1" connect="1" arrows="1" fold="1" page="1" pageScale="1" pageWidth="827" pageHeight="1169" math="0" shadow="0">
      <root>
        <mxCell id="9vcdNNpGtf2_4d6_ibxP-0" />
        <mxCell id="9vcdNNpGtf2_4d6_ibxP-1" parent="9vcdNNpGtf2_4d6_ibxP-0" />
        <mxCell id="9vcdNNpGtf2_4d6_ibxP-2" value="" style="edgeStyle=orthogonalEdgeStyle;rounded=0;orthogonalLoop=1;jettySize=auto;html=1;" parent="9vcdNNpGtf2_4d6_ibxP-1" source="9vcdNNpGtf2_4d6_ibxP-3" target="9vcdNNpGtf2_4d6_ibxP-6" edge="1">
          <mxGeometry relative="1" as="geometry" />
        </mxCell>
        <mxCell id="9vcdNNpGtf2_4d6_ibxP-3" value="start" style="rounded=1;whiteSpace=wrap;html=1;arcSize=50;" parent="9vcdNNpGtf2_4d6_ibxP-1" vertex="1">
          <mxGeometry x="20" y="30" width="120" height="60" as="geometry" />
        </mxCell>
        <mxCell id="9vcdNNpGtf2_4d6_ibxP-4" value="end" style="rounded=1;whiteSpace=wrap;html=1;arcSize=50;" parent="9vcdNNpGtf2_4d6_ibxP-1" vertex="1">
          <mxGeometry x="20" y="170" width="120" height="60" as="geometry" />
        </mxCell>
        <mxCell id="9vcdNNpGtf2_4d6_ibxP-5" value="" style="edgeStyle=orthogonalEdgeStyle;rounded=0;orthogonalLoop=1;jettySize=auto;html=1;" parent="9vcdNNpGtf2_4d6_ibxP-1" source="9vcdNNpGtf2_4d6_ibxP-6" target="9vcdNNpGtf2_4d6_ibxP-8" edge="1">
          <mxGeometry relative="1" as="geometry" />
        </mxCell>
        <mxCell id="9vcdNNpGtf2_4d6_ibxP-6" value="press update communication event button" style="whiteSpace=wrap;html=1;rounded=0;arcSize=50;" parent="9vcdNNpGtf2_4d6_ibxP-1" vertex="1">
          <mxGeometry x="220" y="30" width="120" height="60" as="geometry" />
        </mxCell>
        <mxCell id="9vcdNNpGtf2_4d6_ibxP-7" value="" style="edgeStyle=orthogonalEdgeStyle;rounded=0;orthogonalLoop=1;jettySize=auto;html=1;" parent="9vcdNNpGtf2_4d6_ibxP-1" source="9vcdNNpGtf2_4d6_ibxP-8" target="9vcdNNpGtf2_4d6_ibxP-10" edge="1">
          <mxGeometry relative="1" as="geometry" />
        </mxCell>
        <mxCell id="9vcdNNpGtf2_4d6_ibxP-8" value="press delete communication event button" style="whiteSpace=wrap;html=1;rounded=0;arcSize=50;" parent="9vcdNNpGtf2_4d6_ibxP-1" vertex="1">
          <mxGeometry x="420" y="30" width="120" height="60" as="geometry" />
        </mxCell>
        <mxCell id="9vcdNNpGtf2_4d6_ibxP-9" value="" style="edgeStyle=orthogonalEdgeStyle;rounded=0;orthogonalLoop=1;jettySize=auto;html=1;" parent="9vcdNNpGtf2_4d6_ibxP-1" source="9vcdNNpGtf2_4d6_ibxP-10" target="9vcdNNpGtf2_4d6_ibxP-12" edge="1">
          <mxGeometry relative="1" as="geometry" />
        </mxCell>
        <mxCell id="9vcdNNpGtf2_4d6_ibxP-10" value="check auth" style="shape=process;whiteSpace=wrap;html=1;backgroundOutline=1;" parent="9vcdNNpGtf2_4d6_ibxP-1" vertex="1">
          <mxGeometry x="620" y="30" width="120" height="60" as="geometry" />
        </mxCell>
        <mxCell id="9vcdNNpGtf2_4d6_ibxP-11" value="" style="edgeStyle=orthogonalEdgeStyle;rounded=0;orthogonalLoop=1;jettySize=auto;html=1;" parent="9vcdNNpGtf2_4d6_ibxP-1" source="9vcdNNpGtf2_4d6_ibxP-12" target="9vcdNNpGtf2_4d6_ibxP-15" edge="1">
          <mxGeometry relative="1" as="geometry" />
        </mxCell>
        <mxCell id="9vcdNNpGtf2_4d6_ibxP-12" value="use access token to delete communication event" style="whiteSpace=wrap;html=1;" parent="9vcdNNpGtf2_4d6_ibxP-1" vertex="1">
          <mxGeometry x="620" y="170" width="120" height="60" as="geometry" />
        </mxCell>
        <mxCell id="9vcdNNpGtf2_4d6_ibxP-13" value="yes" style="edgeStyle=orthogonalEdgeStyle;rounded=0;orthogonalLoop=1;jettySize=auto;html=1;" parent="9vcdNNpGtf2_4d6_ibxP-1" source="9vcdNNpGtf2_4d6_ibxP-15" target="9vcdNNpGtf2_4d6_ibxP-17" edge="1">
          <mxGeometry relative="1" as="geometry" />
        </mxCell>
        <mxCell id="9vcdNNpGtf2_4d6_ibxP-14" value="no" style="edgeStyle=orthogonalEdgeStyle;rounded=0;orthogonalLoop=1;jettySize=auto;html=1;" parent="9vcdNNpGtf2_4d6_ibxP-1" source="9vcdNNpGtf2_4d6_ibxP-15" target="9vcdNNpGtf2_4d6_ibxP-20" edge="1">
          <mxGeometry relative="1" as="geometry">
            <mxPoint x="480" y="310" as="targetPoint" />
          </mxGeometry>
        </mxCell>
        <mxCell id="9vcdNNpGtf2_4d6_ibxP-15" value="success" style="rhombus;whiteSpace=wrap;html=1;" parent="9vcdNNpGtf2_4d6_ibxP-1" vertex="1">
          <mxGeometry x="440" y="160" width="80" height="80" as="geometry" />
        </mxCell>
        <mxCell id="9vcdNNpGtf2_4d6_ibxP-16" style="edgeStyle=orthogonalEdgeStyle;rounded=0;orthogonalLoop=1;jettySize=auto;html=1;" parent="9vcdNNpGtf2_4d6_ibxP-1" source="9vcdNNpGtf2_4d6_ibxP-17" target="9vcdNNpGtf2_4d6_ibxP-4" edge="1">
          <mxGeometry relative="1" as="geometry" />
        </mxCell>
        <mxCell id="9vcdNNpGtf2_4d6_ibxP-17" value="show communication events" style="rounded=0;whiteSpace=wrap;html=1;" parent="9vcdNNpGtf2_4d6_ibxP-1" vertex="1">
          <mxGeometry x="220" y="170" width="120" height="60" as="geometry" />
        </mxCell>
        <mxCell id="9vcdNNpGtf2_4d6_ibxP-18" value="no" style="edgeStyle=orthogonalEdgeStyle;rounded=0;orthogonalLoop=1;jettySize=auto;html=1;" parent="9vcdNNpGtf2_4d6_ibxP-1" source="9vcdNNpGtf2_4d6_ibxP-20" target="9vcdNNpGtf2_4d6_ibxP-24" edge="1">
          <mxGeometry relative="1" as="geometry">
            <mxPoint x="320" y="350" as="targetPoint" />
          </mxGeometry>
        </mxCell>
        <mxCell id="9vcdNNpGtf2_4d6_ibxP-19" value="yes" style="edgeStyle=orthogonalEdgeStyle;rounded=0;orthogonalLoop=1;jettySize=auto;html=1;" parent="9vcdNNpGtf2_4d6_ibxP-1" source="9vcdNNpGtf2_4d6_ibxP-20" target="9vcdNNpGtf2_4d6_ibxP-22" edge="1">
          <mxGeometry relative="1" as="geometry">
            <mxPoint x="480" y="460" as="targetPoint" />
          </mxGeometry>
        </mxCell>
        <mxCell id="9vcdNNpGtf2_4d6_ibxP-20" value="&lt;font style=&quot;font-size: 10px;&quot;&gt;is unauthorize&lt;/font&gt;" style="rhombus;whiteSpace=wrap;html=1;" parent="9vcdNNpGtf2_4d6_ibxP-1" vertex="1">
          <mxGeometry x="440" y="310" width="80" height="80" as="geometry" />
        </mxCell>
        <mxCell id="9vcdNNpGtf2_4d6_ibxP-21" style="edgeStyle=orthogonalEdgeStyle;rounded=0;orthogonalLoop=1;jettySize=auto;html=1;" parent="9vcdNNpGtf2_4d6_ibxP-1" source="9vcdNNpGtf2_4d6_ibxP-22" target="9vcdNNpGtf2_4d6_ibxP-4" edge="1">
          <mxGeometry relative="1" as="geometry">
            <Array as="points">
              <mxPoint x="680" y="420" />
              <mxPoint x="80" y="420" />
            </Array>
          </mxGeometry>
        </mxCell>
        <mxCell id="9vcdNNpGtf2_4d6_ibxP-22" value="logout" style="shape=process;whiteSpace=wrap;html=1;backgroundOutline=1;" parent="9vcdNNpGtf2_4d6_ibxP-1" vertex="1">
          <mxGeometry x="620" y="320" width="120" height="60" as="geometry" />
        </mxCell>
        <mxCell id="9vcdNNpGtf2_4d6_ibxP-23" style="edgeStyle=orthogonalEdgeStyle;rounded=0;orthogonalLoop=1;jettySize=auto;html=1;" parent="9vcdNNpGtf2_4d6_ibxP-1" source="9vcdNNpGtf2_4d6_ibxP-24" target="9vcdNNpGtf2_4d6_ibxP-4" edge="1">
          <mxGeometry relative="1" as="geometry" />
        </mxCell>
        <mxCell id="9vcdNNpGtf2_4d6_ibxP-24" value="show error" style="rounded=0;whiteSpace=wrap;html=1;" parent="9vcdNNpGtf2_4d6_ibxP-1" vertex="1">
          <mxGeometry x="220" y="320" width="120" height="60" as="geometry" />
        </mxCell>
      </root>
    </mxGraphModel>
  </diagram>
  <diagram name="create mold" id="1QbWZeA6MTVED_bgXNjE">
    <mxGraphModel dx="1042" dy="626" grid="1" gridSize="10" guides="1" tooltips="1" connect="1" arrows="1" fold="1" page="1" pageScale="1" pageWidth="827" pageHeight="1169" math="0" shadow="0">
      <root>
        <mxCell id="XhHmiUflHOxw2_ojajZN-0" />
        <mxCell id="XhHmiUflHOxw2_ojajZN-1" parent="XhHmiUflHOxw2_ojajZN-0" />
        <mxCell id="XhHmiUflHOxw2_ojajZN-2" value="" style="edgeStyle=orthogonalEdgeStyle;rounded=0;orthogonalLoop=1;jettySize=auto;html=1;" parent="XhHmiUflHOxw2_ojajZN-1" source="XhHmiUflHOxw2_ojajZN-3" target="XhHmiUflHOxw2_ojajZN-6" edge="1">
          <mxGeometry relative="1" as="geometry" />
        </mxCell>
        <mxCell id="XhHmiUflHOxw2_ojajZN-3" value="start" style="rounded=1;whiteSpace=wrap;html=1;arcSize=50;" parent="XhHmiUflHOxw2_ojajZN-1" vertex="1">
          <mxGeometry x="20" y="30" width="120" height="60" as="geometry" />
        </mxCell>
        <mxCell id="XhHmiUflHOxw2_ojajZN-4" value="end" style="rounded=1;whiteSpace=wrap;html=1;arcSize=50;" parent="XhHmiUflHOxw2_ojajZN-1" vertex="1">
          <mxGeometry x="20" y="170" width="120" height="60" as="geometry" />
        </mxCell>
        <mxCell id="XhHmiUflHOxw2_ojajZN-5" value="" style="edgeStyle=orthogonalEdgeStyle;rounded=0;orthogonalLoop=1;jettySize=auto;html=1;" parent="XhHmiUflHOxw2_ojajZN-1" source="XhHmiUflHOxw2_ojajZN-6" target="XhHmiUflHOxw2_ojajZN-8" edge="1">
          <mxGeometry relative="1" as="geometry" />
        </mxCell>
        <mxCell id="XhHmiUflHOxw2_ojajZN-6" value="press create mold button" style="whiteSpace=wrap;html=1;rounded=0;arcSize=50;" parent="XhHmiUflHOxw2_ojajZN-1" vertex="1">
          <mxGeometry x="220" y="30" width="120" height="60" as="geometry" />
        </mxCell>
        <mxCell id="XhHmiUflHOxw2_ojajZN-7" value="" style="edgeStyle=orthogonalEdgeStyle;rounded=0;orthogonalLoop=1;jettySize=auto;html=1;" parent="XhHmiUflHOxw2_ojajZN-1" source="XhHmiUflHOxw2_ojajZN-8" target="XhHmiUflHOxw2_ojajZN-10" edge="1">
          <mxGeometry relative="1" as="geometry" />
        </mxCell>
        <mxCell id="XhHmiUflHOxw2_ojajZN-8" value="input mold detail" style="whiteSpace=wrap;html=1;rounded=0;arcSize=50;" parent="XhHmiUflHOxw2_ojajZN-1" vertex="1">
          <mxGeometry x="420" y="30" width="120" height="60" as="geometry" />
        </mxCell>
        <mxCell id="XhHmiUflHOxw2_ojajZN-9" value="" style="edgeStyle=orthogonalEdgeStyle;rounded=0;orthogonalLoop=1;jettySize=auto;html=1;" parent="XhHmiUflHOxw2_ojajZN-1" source="XhHmiUflHOxw2_ojajZN-10" target="XhHmiUflHOxw2_ojajZN-12" edge="1">
          <mxGeometry relative="1" as="geometry" />
        </mxCell>
        <mxCell id="XhHmiUflHOxw2_ojajZN-10" value="check auth" style="shape=process;whiteSpace=wrap;html=1;backgroundOutline=1;" parent="XhHmiUflHOxw2_ojajZN-1" vertex="1">
          <mxGeometry x="620" y="30" width="120" height="60" as="geometry" />
        </mxCell>
        <mxCell id="XhHmiUflHOxw2_ojajZN-11" value="" style="edgeStyle=orthogonalEdgeStyle;rounded=0;orthogonalLoop=1;jettySize=auto;html=1;" parent="XhHmiUflHOxw2_ojajZN-1" source="XhHmiUflHOxw2_ojajZN-12" target="XhHmiUflHOxw2_ojajZN-15" edge="1">
          <mxGeometry relative="1" as="geometry" />
        </mxCell>
        <mxCell id="XhHmiUflHOxw2_ojajZN-12" value="use access token to create mold" style="whiteSpace=wrap;html=1;" parent="XhHmiUflHOxw2_ojajZN-1" vertex="1">
          <mxGeometry x="620" y="170" width="120" height="60" as="geometry" />
        </mxCell>
        <mxCell id="XhHmiUflHOxw2_ojajZN-13" value="yes" style="edgeStyle=orthogonalEdgeStyle;rounded=0;orthogonalLoop=1;jettySize=auto;html=1;" parent="XhHmiUflHOxw2_ojajZN-1" source="XhHmiUflHOxw2_ojajZN-15" target="XhHmiUflHOxw2_ojajZN-17" edge="1">
          <mxGeometry relative="1" as="geometry" />
        </mxCell>
        <mxCell id="XhHmiUflHOxw2_ojajZN-14" value="no" style="edgeStyle=orthogonalEdgeStyle;rounded=0;orthogonalLoop=1;jettySize=auto;html=1;" parent="XhHmiUflHOxw2_ojajZN-1" source="XhHmiUflHOxw2_ojajZN-15" target="XhHmiUflHOxw2_ojajZN-20" edge="1">
          <mxGeometry relative="1" as="geometry">
            <mxPoint x="480" y="310" as="targetPoint" />
          </mxGeometry>
        </mxCell>
        <mxCell id="XhHmiUflHOxw2_ojajZN-15" value="success" style="rhombus;whiteSpace=wrap;html=1;" parent="XhHmiUflHOxw2_ojajZN-1" vertex="1">
          <mxGeometry x="440" y="160" width="80" height="80" as="geometry" />
        </mxCell>
        <mxCell id="XhHmiUflHOxw2_ojajZN-16" style="edgeStyle=orthogonalEdgeStyle;rounded=0;orthogonalLoop=1;jettySize=auto;html=1;" parent="XhHmiUflHOxw2_ojajZN-1" source="XhHmiUflHOxw2_ojajZN-17" target="XhHmiUflHOxw2_ojajZN-4" edge="1">
          <mxGeometry relative="1" as="geometry" />
        </mxCell>
        <mxCell id="XhHmiUflHOxw2_ojajZN-17" value="show molds" style="rounded=0;whiteSpace=wrap;html=1;" parent="XhHmiUflHOxw2_ojajZN-1" vertex="1">
          <mxGeometry x="220" y="170" width="120" height="60" as="geometry" />
        </mxCell>
        <mxCell id="XhHmiUflHOxw2_ojajZN-18" value="no" style="edgeStyle=orthogonalEdgeStyle;rounded=0;orthogonalLoop=1;jettySize=auto;html=1;" parent="XhHmiUflHOxw2_ojajZN-1" source="XhHmiUflHOxw2_ojajZN-20" target="XhHmiUflHOxw2_ojajZN-24" edge="1">
          <mxGeometry relative="1" as="geometry">
            <mxPoint x="320" y="350" as="targetPoint" />
          </mxGeometry>
        </mxCell>
        <mxCell id="XhHmiUflHOxw2_ojajZN-19" value="yes" style="edgeStyle=orthogonalEdgeStyle;rounded=0;orthogonalLoop=1;jettySize=auto;html=1;" parent="XhHmiUflHOxw2_ojajZN-1" source="XhHmiUflHOxw2_ojajZN-20" target="XhHmiUflHOxw2_ojajZN-22" edge="1">
          <mxGeometry relative="1" as="geometry">
            <mxPoint x="480" y="460" as="targetPoint" />
          </mxGeometry>
        </mxCell>
        <mxCell id="XhHmiUflHOxw2_ojajZN-20" value="&lt;font style=&quot;font-size: 10px;&quot;&gt;is unauthorize&lt;/font&gt;" style="rhombus;whiteSpace=wrap;html=1;" parent="XhHmiUflHOxw2_ojajZN-1" vertex="1">
          <mxGeometry x="440" y="310" width="80" height="80" as="geometry" />
        </mxCell>
        <mxCell id="XhHmiUflHOxw2_ojajZN-21" style="edgeStyle=orthogonalEdgeStyle;rounded=0;orthogonalLoop=1;jettySize=auto;html=1;" parent="XhHmiUflHOxw2_ojajZN-1" source="XhHmiUflHOxw2_ojajZN-22" target="XhHmiUflHOxw2_ojajZN-4" edge="1">
          <mxGeometry relative="1" as="geometry">
            <Array as="points">
              <mxPoint x="680" y="420" />
              <mxPoint x="80" y="420" />
            </Array>
          </mxGeometry>
        </mxCell>
        <mxCell id="XhHmiUflHOxw2_ojajZN-22" value="logout" style="shape=process;whiteSpace=wrap;html=1;backgroundOutline=1;" parent="XhHmiUflHOxw2_ojajZN-1" vertex="1">
          <mxGeometry x="620" y="320" width="120" height="60" as="geometry" />
        </mxCell>
        <mxCell id="XhHmiUflHOxw2_ojajZN-23" style="edgeStyle=orthogonalEdgeStyle;rounded=0;orthogonalLoop=1;jettySize=auto;html=1;" parent="XhHmiUflHOxw2_ojajZN-1" source="XhHmiUflHOxw2_ojajZN-24" target="XhHmiUflHOxw2_ojajZN-4" edge="1">
          <mxGeometry relative="1" as="geometry" />
        </mxCell>
        <mxCell id="XhHmiUflHOxw2_ojajZN-24" value="show error" style="rounded=0;whiteSpace=wrap;html=1;" parent="XhHmiUflHOxw2_ojajZN-1" vertex="1">
          <mxGeometry x="220" y="320" width="120" height="60" as="geometry" />
        </mxCell>
      </root>
    </mxGraphModel>
  </diagram>
  <diagram name="read mold" id="wGGgUZe2lC8epBErSkKW">
    <mxGraphModel dx="1042" dy="626" grid="1" gridSize="10" guides="1" tooltips="1" connect="1" arrows="1" fold="1" page="1" pageScale="1" pageWidth="827" pageHeight="1169" math="0" shadow="0">
      <root>
        <mxCell id="_BpClYvlnPE_yRXu2dc3-0" />
        <mxCell id="_BpClYvlnPE_yRXu2dc3-1" parent="_BpClYvlnPE_yRXu2dc3-0" />
        <mxCell id="_BpClYvlnPE_yRXu2dc3-2" value="" style="edgeStyle=orthogonalEdgeStyle;rounded=0;orthogonalLoop=1;jettySize=auto;html=1;" parent="_BpClYvlnPE_yRXu2dc3-1" source="_BpClYvlnPE_yRXu2dc3-3" target="_BpClYvlnPE_yRXu2dc3-6" edge="1">
          <mxGeometry relative="1" as="geometry" />
        </mxCell>
        <mxCell id="_BpClYvlnPE_yRXu2dc3-3" value="start" style="rounded=1;whiteSpace=wrap;html=1;arcSize=50;" parent="_BpClYvlnPE_yRXu2dc3-1" vertex="1">
          <mxGeometry x="20" y="20" width="120" height="60" as="geometry" />
        </mxCell>
        <mxCell id="_BpClYvlnPE_yRXu2dc3-4" value="end" style="rounded=1;whiteSpace=wrap;html=1;arcSize=50;" parent="_BpClYvlnPE_yRXu2dc3-1" vertex="1">
          <mxGeometry x="20" y="160" width="120" height="60" as="geometry" />
        </mxCell>
        <mxCell id="_BpClYvlnPE_yRXu2dc3-5" value="" style="edgeStyle=orthogonalEdgeStyle;rounded=0;orthogonalLoop=1;jettySize=auto;html=1;" parent="_BpClYvlnPE_yRXu2dc3-1" source="_BpClYvlnPE_yRXu2dc3-6" target="_BpClYvlnPE_yRXu2dc3-8" edge="1">
          <mxGeometry relative="1" as="geometry" />
        </mxCell>
        <mxCell id="_BpClYvlnPE_yRXu2dc3-6" value="check auth" style="shape=process;whiteSpace=wrap;html=1;backgroundOutline=1;" parent="_BpClYvlnPE_yRXu2dc3-1" vertex="1">
          <mxGeometry x="200" y="20" width="120" height="60" as="geometry" />
        </mxCell>
        <mxCell id="_BpClYvlnPE_yRXu2dc3-7" value="" style="edgeStyle=orthogonalEdgeStyle;rounded=0;orthogonalLoop=1;jettySize=auto;html=1;" parent="_BpClYvlnPE_yRXu2dc3-1" source="_BpClYvlnPE_yRXu2dc3-8" target="_BpClYvlnPE_yRXu2dc3-11" edge="1">
          <mxGeometry relative="1" as="geometry" />
        </mxCell>
        <mxCell id="_BpClYvlnPE_yRXu2dc3-8" value="use access token to get molds" style="whiteSpace=wrap;html=1;" parent="_BpClYvlnPE_yRXu2dc3-1" vertex="1">
          <mxGeometry x="400" y="20" width="120" height="60" as="geometry" />
        </mxCell>
        <mxCell id="_BpClYvlnPE_yRXu2dc3-9" value="no" style="edgeStyle=orthogonalEdgeStyle;rounded=0;orthogonalLoop=1;jettySize=auto;html=1;" parent="_BpClYvlnPE_yRXu2dc3-1" source="_BpClYvlnPE_yRXu2dc3-11" target="_BpClYvlnPE_yRXu2dc3-13" edge="1">
          <mxGeometry relative="1" as="geometry" />
        </mxCell>
        <mxCell id="_BpClYvlnPE_yRXu2dc3-10" value="yes" style="edgeStyle=orthogonalEdgeStyle;rounded=0;orthogonalLoop=1;jettySize=auto;html=1;" parent="_BpClYvlnPE_yRXu2dc3-1" source="_BpClYvlnPE_yRXu2dc3-11" target="_BpClYvlnPE_yRXu2dc3-15" edge="1">
          <mxGeometry relative="1" as="geometry" />
        </mxCell>
        <mxCell id="_BpClYvlnPE_yRXu2dc3-11" value="is success" style="rhombus;whiteSpace=wrap;html=1;" parent="_BpClYvlnPE_yRXu2dc3-1" vertex="1">
          <mxGeometry x="420" y="150" width="80" height="80" as="geometry" />
        </mxCell>
        <mxCell id="_BpClYvlnPE_yRXu2dc3-12" style="edgeStyle=orthogonalEdgeStyle;rounded=0;orthogonalLoop=1;jettySize=auto;html=1;" parent="_BpClYvlnPE_yRXu2dc3-1" source="_BpClYvlnPE_yRXu2dc3-13" target="_BpClYvlnPE_yRXu2dc3-4" edge="1">
          <mxGeometry relative="1" as="geometry">
            <Array as="points">
              <mxPoint x="620" y="260" />
              <mxPoint x="80" y="260" />
            </Array>
          </mxGeometry>
        </mxCell>
        <mxCell id="_BpClYvlnPE_yRXu2dc3-13" value="show error" style="whiteSpace=wrap;html=1;" parent="_BpClYvlnPE_yRXu2dc3-1" vertex="1">
          <mxGeometry x="560" y="160" width="120" height="60" as="geometry" />
        </mxCell>
        <mxCell id="_BpClYvlnPE_yRXu2dc3-14" style="edgeStyle=orthogonalEdgeStyle;rounded=0;orthogonalLoop=1;jettySize=auto;html=1;" parent="_BpClYvlnPE_yRXu2dc3-1" source="_BpClYvlnPE_yRXu2dc3-15" target="_BpClYvlnPE_yRXu2dc3-4" edge="1">
          <mxGeometry relative="1" as="geometry" />
        </mxCell>
        <mxCell id="_BpClYvlnPE_yRXu2dc3-15" value="show molds" style="whiteSpace=wrap;html=1;" parent="_BpClYvlnPE_yRXu2dc3-1" vertex="1">
          <mxGeometry x="200" y="160" width="120" height="60" as="geometry" />
        </mxCell>
      </root>
    </mxGraphModel>
  </diagram>
  <diagram name="update mold" id="R51m7mTaeBvdWb_c1dK4">
    <mxGraphModel dx="1042" dy="626" grid="1" gridSize="10" guides="1" tooltips="1" connect="1" arrows="1" fold="1" page="1" pageScale="1" pageWidth="827" pageHeight="1169" math="0" shadow="0">
      <root>
        <mxCell id="AvFdiS71eTT8Rk40K7gw-0" />
        <mxCell id="AvFdiS71eTT8Rk40K7gw-1" parent="AvFdiS71eTT8Rk40K7gw-0" />
        <mxCell id="AvFdiS71eTT8Rk40K7gw-2" value="" style="edgeStyle=orthogonalEdgeStyle;rounded=0;orthogonalLoop=1;jettySize=auto;html=1;" parent="AvFdiS71eTT8Rk40K7gw-1" source="AvFdiS71eTT8Rk40K7gw-3" target="AvFdiS71eTT8Rk40K7gw-6" edge="1">
          <mxGeometry relative="1" as="geometry" />
        </mxCell>
        <mxCell id="AvFdiS71eTT8Rk40K7gw-3" value="start" style="rounded=1;whiteSpace=wrap;html=1;arcSize=50;" parent="AvFdiS71eTT8Rk40K7gw-1" vertex="1">
          <mxGeometry x="20" y="30" width="120" height="60" as="geometry" />
        </mxCell>
        <mxCell id="AvFdiS71eTT8Rk40K7gw-4" value="end" style="rounded=1;whiteSpace=wrap;html=1;arcSize=50;" parent="AvFdiS71eTT8Rk40K7gw-1" vertex="1">
          <mxGeometry x="20" y="170" width="120" height="60" as="geometry" />
        </mxCell>
        <mxCell id="AvFdiS71eTT8Rk40K7gw-5" value="" style="edgeStyle=orthogonalEdgeStyle;rounded=0;orthogonalLoop=1;jettySize=auto;html=1;" parent="AvFdiS71eTT8Rk40K7gw-1" source="AvFdiS71eTT8Rk40K7gw-6" target="AvFdiS71eTT8Rk40K7gw-8" edge="1">
          <mxGeometry relative="1" as="geometry" />
        </mxCell>
        <mxCell id="AvFdiS71eTT8Rk40K7gw-6" value="press update mold button" style="whiteSpace=wrap;html=1;rounded=0;arcSize=50;" parent="AvFdiS71eTT8Rk40K7gw-1" vertex="1">
          <mxGeometry x="220" y="30" width="120" height="60" as="geometry" />
        </mxCell>
        <mxCell id="AvFdiS71eTT8Rk40K7gw-7" value="" style="edgeStyle=orthogonalEdgeStyle;rounded=0;orthogonalLoop=1;jettySize=auto;html=1;" parent="AvFdiS71eTT8Rk40K7gw-1" source="AvFdiS71eTT8Rk40K7gw-8" target="AvFdiS71eTT8Rk40K7gw-10" edge="1">
          <mxGeometry relative="1" as="geometry" />
        </mxCell>
        <mxCell id="AvFdiS71eTT8Rk40K7gw-8" value="update mold detail" style="whiteSpace=wrap;html=1;rounded=0;arcSize=50;" parent="AvFdiS71eTT8Rk40K7gw-1" vertex="1">
          <mxGeometry x="420" y="30" width="120" height="60" as="geometry" />
        </mxCell>
        <mxCell id="AvFdiS71eTT8Rk40K7gw-9" value="" style="edgeStyle=orthogonalEdgeStyle;rounded=0;orthogonalLoop=1;jettySize=auto;html=1;" parent="AvFdiS71eTT8Rk40K7gw-1" source="AvFdiS71eTT8Rk40K7gw-10" target="AvFdiS71eTT8Rk40K7gw-12" edge="1">
          <mxGeometry relative="1" as="geometry" />
        </mxCell>
        <mxCell id="AvFdiS71eTT8Rk40K7gw-10" value="check auth" style="shape=process;whiteSpace=wrap;html=1;backgroundOutline=1;" parent="AvFdiS71eTT8Rk40K7gw-1" vertex="1">
          <mxGeometry x="620" y="30" width="120" height="60" as="geometry" />
        </mxCell>
        <mxCell id="AvFdiS71eTT8Rk40K7gw-11" value="" style="edgeStyle=orthogonalEdgeStyle;rounded=0;orthogonalLoop=1;jettySize=auto;html=1;" parent="AvFdiS71eTT8Rk40K7gw-1" source="AvFdiS71eTT8Rk40K7gw-12" target="AvFdiS71eTT8Rk40K7gw-15" edge="1">
          <mxGeometry relative="1" as="geometry" />
        </mxCell>
        <mxCell id="AvFdiS71eTT8Rk40K7gw-12" value="use access token to update mold" style="whiteSpace=wrap;html=1;" parent="AvFdiS71eTT8Rk40K7gw-1" vertex="1">
          <mxGeometry x="620" y="170" width="120" height="60" as="geometry" />
        </mxCell>
        <mxCell id="AvFdiS71eTT8Rk40K7gw-13" value="yes" style="edgeStyle=orthogonalEdgeStyle;rounded=0;orthogonalLoop=1;jettySize=auto;html=1;" parent="AvFdiS71eTT8Rk40K7gw-1" source="AvFdiS71eTT8Rk40K7gw-15" target="AvFdiS71eTT8Rk40K7gw-17" edge="1">
          <mxGeometry relative="1" as="geometry" />
        </mxCell>
        <mxCell id="AvFdiS71eTT8Rk40K7gw-14" value="no" style="edgeStyle=orthogonalEdgeStyle;rounded=0;orthogonalLoop=1;jettySize=auto;html=1;" parent="AvFdiS71eTT8Rk40K7gw-1" source="AvFdiS71eTT8Rk40K7gw-15" target="AvFdiS71eTT8Rk40K7gw-20" edge="1">
          <mxGeometry relative="1" as="geometry">
            <mxPoint x="480" y="310" as="targetPoint" />
          </mxGeometry>
        </mxCell>
        <mxCell id="AvFdiS71eTT8Rk40K7gw-15" value="success" style="rhombus;whiteSpace=wrap;html=1;" parent="AvFdiS71eTT8Rk40K7gw-1" vertex="1">
          <mxGeometry x="440" y="160" width="80" height="80" as="geometry" />
        </mxCell>
        <mxCell id="AvFdiS71eTT8Rk40K7gw-16" style="edgeStyle=orthogonalEdgeStyle;rounded=0;orthogonalLoop=1;jettySize=auto;html=1;" parent="AvFdiS71eTT8Rk40K7gw-1" source="AvFdiS71eTT8Rk40K7gw-17" target="AvFdiS71eTT8Rk40K7gw-4" edge="1">
          <mxGeometry relative="1" as="geometry" />
        </mxCell>
        <mxCell id="AvFdiS71eTT8Rk40K7gw-17" value="show molds" style="rounded=0;whiteSpace=wrap;html=1;" parent="AvFdiS71eTT8Rk40K7gw-1" vertex="1">
          <mxGeometry x="220" y="170" width="120" height="60" as="geometry" />
        </mxCell>
        <mxCell id="AvFdiS71eTT8Rk40K7gw-18" value="no" style="edgeStyle=orthogonalEdgeStyle;rounded=0;orthogonalLoop=1;jettySize=auto;html=1;" parent="AvFdiS71eTT8Rk40K7gw-1" source="AvFdiS71eTT8Rk40K7gw-20" target="AvFdiS71eTT8Rk40K7gw-24" edge="1">
          <mxGeometry relative="1" as="geometry">
            <mxPoint x="320" y="350" as="targetPoint" />
          </mxGeometry>
        </mxCell>
        <mxCell id="AvFdiS71eTT8Rk40K7gw-19" value="yes" style="edgeStyle=orthogonalEdgeStyle;rounded=0;orthogonalLoop=1;jettySize=auto;html=1;" parent="AvFdiS71eTT8Rk40K7gw-1" source="AvFdiS71eTT8Rk40K7gw-20" target="AvFdiS71eTT8Rk40K7gw-22" edge="1">
          <mxGeometry relative="1" as="geometry">
            <mxPoint x="480" y="460" as="targetPoint" />
          </mxGeometry>
        </mxCell>
        <mxCell id="AvFdiS71eTT8Rk40K7gw-20" value="&lt;font style=&quot;font-size: 10px;&quot;&gt;is unauthorize&lt;/font&gt;" style="rhombus;whiteSpace=wrap;html=1;" parent="AvFdiS71eTT8Rk40K7gw-1" vertex="1">
          <mxGeometry x="440" y="310" width="80" height="80" as="geometry" />
        </mxCell>
        <mxCell id="AvFdiS71eTT8Rk40K7gw-21" style="edgeStyle=orthogonalEdgeStyle;rounded=0;orthogonalLoop=1;jettySize=auto;html=1;" parent="AvFdiS71eTT8Rk40K7gw-1" source="AvFdiS71eTT8Rk40K7gw-22" target="AvFdiS71eTT8Rk40K7gw-4" edge="1">
          <mxGeometry relative="1" as="geometry">
            <Array as="points">
              <mxPoint x="680" y="420" />
              <mxPoint x="80" y="420" />
            </Array>
          </mxGeometry>
        </mxCell>
        <mxCell id="AvFdiS71eTT8Rk40K7gw-22" value="logout" style="shape=process;whiteSpace=wrap;html=1;backgroundOutline=1;" parent="AvFdiS71eTT8Rk40K7gw-1" vertex="1">
          <mxGeometry x="620" y="320" width="120" height="60" as="geometry" />
        </mxCell>
        <mxCell id="AvFdiS71eTT8Rk40K7gw-23" style="edgeStyle=orthogonalEdgeStyle;rounded=0;orthogonalLoop=1;jettySize=auto;html=1;" parent="AvFdiS71eTT8Rk40K7gw-1" source="AvFdiS71eTT8Rk40K7gw-24" target="AvFdiS71eTT8Rk40K7gw-4" edge="1">
          <mxGeometry relative="1" as="geometry" />
        </mxCell>
        <mxCell id="AvFdiS71eTT8Rk40K7gw-24" value="show error" style="rounded=0;whiteSpace=wrap;html=1;" parent="AvFdiS71eTT8Rk40K7gw-1" vertex="1">
          <mxGeometry x="220" y="320" width="120" height="60" as="geometry" />
        </mxCell>
      </root>
    </mxGraphModel>
  </diagram>
  <diagram name="delete mold" id="BO1FANsMqSMiUf1Cz9Kc">
    <mxGraphModel dx="1042" dy="626" grid="1" gridSize="10" guides="1" tooltips="1" connect="1" arrows="1" fold="1" page="1" pageScale="1" pageWidth="827" pageHeight="1169" math="0" shadow="0">
      <root>
        <mxCell id="RvTqQkzqZXYG2zMOyX2--0" />
        <mxCell id="RvTqQkzqZXYG2zMOyX2--1" parent="RvTqQkzqZXYG2zMOyX2--0" />
        <mxCell id="RvTqQkzqZXYG2zMOyX2--2" value="" style="edgeStyle=orthogonalEdgeStyle;rounded=0;orthogonalLoop=1;jettySize=auto;html=1;" parent="RvTqQkzqZXYG2zMOyX2--1" source="RvTqQkzqZXYG2zMOyX2--3" target="RvTqQkzqZXYG2zMOyX2--6" edge="1">
          <mxGeometry relative="1" as="geometry" />
        </mxCell>
        <mxCell id="RvTqQkzqZXYG2zMOyX2--3" value="start" style="rounded=1;whiteSpace=wrap;html=1;arcSize=50;" parent="RvTqQkzqZXYG2zMOyX2--1" vertex="1">
          <mxGeometry x="20" y="30" width="120" height="60" as="geometry" />
        </mxCell>
        <mxCell id="RvTqQkzqZXYG2zMOyX2--4" value="end" style="rounded=1;whiteSpace=wrap;html=1;arcSize=50;" parent="RvTqQkzqZXYG2zMOyX2--1" vertex="1">
          <mxGeometry x="20" y="170" width="120" height="60" as="geometry" />
        </mxCell>
        <mxCell id="RvTqQkzqZXYG2zMOyX2--5" value="" style="edgeStyle=orthogonalEdgeStyle;rounded=0;orthogonalLoop=1;jettySize=auto;html=1;" parent="RvTqQkzqZXYG2zMOyX2--1" source="RvTqQkzqZXYG2zMOyX2--6" target="RvTqQkzqZXYG2zMOyX2--8" edge="1">
          <mxGeometry relative="1" as="geometry" />
        </mxCell>
        <mxCell id="RvTqQkzqZXYG2zMOyX2--6" value="press update mold button" style="whiteSpace=wrap;html=1;rounded=0;arcSize=50;" parent="RvTqQkzqZXYG2zMOyX2--1" vertex="1">
          <mxGeometry x="220" y="30" width="120" height="60" as="geometry" />
        </mxCell>
        <mxCell id="RvTqQkzqZXYG2zMOyX2--7" value="" style="edgeStyle=orthogonalEdgeStyle;rounded=0;orthogonalLoop=1;jettySize=auto;html=1;" parent="RvTqQkzqZXYG2zMOyX2--1" source="RvTqQkzqZXYG2zMOyX2--8" target="RvTqQkzqZXYG2zMOyX2--10" edge="1">
          <mxGeometry relative="1" as="geometry" />
        </mxCell>
        <mxCell id="RvTqQkzqZXYG2zMOyX2--8" value="press delete mold button" style="whiteSpace=wrap;html=1;rounded=0;arcSize=50;" parent="RvTqQkzqZXYG2zMOyX2--1" vertex="1">
          <mxGeometry x="420" y="30" width="120" height="60" as="geometry" />
        </mxCell>
        <mxCell id="RvTqQkzqZXYG2zMOyX2--9" value="" style="edgeStyle=orthogonalEdgeStyle;rounded=0;orthogonalLoop=1;jettySize=auto;html=1;" parent="RvTqQkzqZXYG2zMOyX2--1" source="RvTqQkzqZXYG2zMOyX2--10" target="RvTqQkzqZXYG2zMOyX2--12" edge="1">
          <mxGeometry relative="1" as="geometry" />
        </mxCell>
        <mxCell id="RvTqQkzqZXYG2zMOyX2--10" value="check auth" style="shape=process;whiteSpace=wrap;html=1;backgroundOutline=1;" parent="RvTqQkzqZXYG2zMOyX2--1" vertex="1">
          <mxGeometry x="620" y="30" width="120" height="60" as="geometry" />
        </mxCell>
        <mxCell id="RvTqQkzqZXYG2zMOyX2--11" value="" style="edgeStyle=orthogonalEdgeStyle;rounded=0;orthogonalLoop=1;jettySize=auto;html=1;" parent="RvTqQkzqZXYG2zMOyX2--1" source="RvTqQkzqZXYG2zMOyX2--12" target="RvTqQkzqZXYG2zMOyX2--15" edge="1">
          <mxGeometry relative="1" as="geometry" />
        </mxCell>
        <mxCell id="RvTqQkzqZXYG2zMOyX2--12" value="use access token to delete mold" style="whiteSpace=wrap;html=1;" parent="RvTqQkzqZXYG2zMOyX2--1" vertex="1">
          <mxGeometry x="620" y="170" width="120" height="60" as="geometry" />
        </mxCell>
        <mxCell id="RvTqQkzqZXYG2zMOyX2--13" value="yes" style="edgeStyle=orthogonalEdgeStyle;rounded=0;orthogonalLoop=1;jettySize=auto;html=1;" parent="RvTqQkzqZXYG2zMOyX2--1" source="RvTqQkzqZXYG2zMOyX2--15" target="RvTqQkzqZXYG2zMOyX2--17" edge="1">
          <mxGeometry relative="1" as="geometry" />
        </mxCell>
        <mxCell id="RvTqQkzqZXYG2zMOyX2--14" value="no" style="edgeStyle=orthogonalEdgeStyle;rounded=0;orthogonalLoop=1;jettySize=auto;html=1;" parent="RvTqQkzqZXYG2zMOyX2--1" source="RvTqQkzqZXYG2zMOyX2--15" target="RvTqQkzqZXYG2zMOyX2--20" edge="1">
          <mxGeometry relative="1" as="geometry">
            <mxPoint x="480" y="310" as="targetPoint" />
          </mxGeometry>
        </mxCell>
        <mxCell id="RvTqQkzqZXYG2zMOyX2--15" value="success" style="rhombus;whiteSpace=wrap;html=1;" parent="RvTqQkzqZXYG2zMOyX2--1" vertex="1">
          <mxGeometry x="440" y="160" width="80" height="80" as="geometry" />
        </mxCell>
        <mxCell id="RvTqQkzqZXYG2zMOyX2--16" style="edgeStyle=orthogonalEdgeStyle;rounded=0;orthogonalLoop=1;jettySize=auto;html=1;" parent="RvTqQkzqZXYG2zMOyX2--1" source="RvTqQkzqZXYG2zMOyX2--17" target="RvTqQkzqZXYG2zMOyX2--4" edge="1">
          <mxGeometry relative="1" as="geometry" />
        </mxCell>
        <mxCell id="RvTqQkzqZXYG2zMOyX2--17" value="show molds" style="rounded=0;whiteSpace=wrap;html=1;" parent="RvTqQkzqZXYG2zMOyX2--1" vertex="1">
          <mxGeometry x="220" y="170" width="120" height="60" as="geometry" />
        </mxCell>
        <mxCell id="RvTqQkzqZXYG2zMOyX2--18" value="no" style="edgeStyle=orthogonalEdgeStyle;rounded=0;orthogonalLoop=1;jettySize=auto;html=1;" parent="RvTqQkzqZXYG2zMOyX2--1" source="RvTqQkzqZXYG2zMOyX2--20" target="RvTqQkzqZXYG2zMOyX2--24" edge="1">
          <mxGeometry relative="1" as="geometry">
            <mxPoint x="320" y="350" as="targetPoint" />
          </mxGeometry>
        </mxCell>
        <mxCell id="RvTqQkzqZXYG2zMOyX2--19" value="yes" style="edgeStyle=orthogonalEdgeStyle;rounded=0;orthogonalLoop=1;jettySize=auto;html=1;" parent="RvTqQkzqZXYG2zMOyX2--1" source="RvTqQkzqZXYG2zMOyX2--20" target="RvTqQkzqZXYG2zMOyX2--22" edge="1">
          <mxGeometry relative="1" as="geometry">
            <mxPoint x="480" y="460" as="targetPoint" />
          </mxGeometry>
        </mxCell>
        <mxCell id="RvTqQkzqZXYG2zMOyX2--20" value="&lt;font style=&quot;font-size: 10px;&quot;&gt;is unauthorize&lt;/font&gt;" style="rhombus;whiteSpace=wrap;html=1;" parent="RvTqQkzqZXYG2zMOyX2--1" vertex="1">
          <mxGeometry x="440" y="310" width="80" height="80" as="geometry" />
        </mxCell>
        <mxCell id="RvTqQkzqZXYG2zMOyX2--21" style="edgeStyle=orthogonalEdgeStyle;rounded=0;orthogonalLoop=1;jettySize=auto;html=1;" parent="RvTqQkzqZXYG2zMOyX2--1" source="RvTqQkzqZXYG2zMOyX2--22" target="RvTqQkzqZXYG2zMOyX2--4" edge="1">
          <mxGeometry relative="1" as="geometry">
            <Array as="points">
              <mxPoint x="680" y="420" />
              <mxPoint x="80" y="420" />
            </Array>
          </mxGeometry>
        </mxCell>
        <mxCell id="RvTqQkzqZXYG2zMOyX2--22" value="logout" style="shape=process;whiteSpace=wrap;html=1;backgroundOutline=1;" parent="RvTqQkzqZXYG2zMOyX2--1" vertex="1">
          <mxGeometry x="620" y="320" width="120" height="60" as="geometry" />
        </mxCell>
        <mxCell id="RvTqQkzqZXYG2zMOyX2--23" style="edgeStyle=orthogonalEdgeStyle;rounded=0;orthogonalLoop=1;jettySize=auto;html=1;" parent="RvTqQkzqZXYG2zMOyX2--1" source="RvTqQkzqZXYG2zMOyX2--24" target="RvTqQkzqZXYG2zMOyX2--4" edge="1">
          <mxGeometry relative="1" as="geometry" />
        </mxCell>
        <mxCell id="RvTqQkzqZXYG2zMOyX2--24" value="show error" style="rounded=0;whiteSpace=wrap;html=1;" parent="RvTqQkzqZXYG2zMOyX2--1" vertex="1">
          <mxGeometry x="220" y="320" width="120" height="60" as="geometry" />
        </mxCell>
      </root>
    </mxGraphModel>
  </diagram>
</mxfile>
